PathFileType	4	(X/Y/Z)	/home/abdul/Desktop/myosuite/custom_workspace/IK/output/S4_12_2.trc
DataRate	CameraRate	NumFrames	NumMarkers	Units	OrigDataRate	OrigDataStartFrame	OrigNumFrames
200.0	200.0	39	3	mm	200.0	264	1054
Frame#	Time	V_Shoulder			V_Elbow			V_Wrist		
		X1	Y1	Z1	X2	Y2	Z2	X3	Y3	Z3

264	1.315	-70.45316870174595	552.6622888438761	276.1521618947527	-135.50370922924685	415.64922336587665	16.533612483140043	-81.67531359573388	199.74701595826724	40.41815848646286
265	1.32	-70.30459460914754	552.5420707552157	276.1963549325375	-135.50169902799558	415.76368675682596	16.467450848171826	-81.63197815170102	199.92276860702634	40.776563319374375
266	1.325	-70.16118432553824	552.424519809041	276.23869373435014	-135.5034243060798	415.88239327331087	16.397973267086144	-81.58312406126998	200.11285261756524	41.16118345090737
267	1.33	-70.02297678148035	552.3096800653402	276.2791614204092	-135.50864747851256	416.0052479886241	16.325260894769478	-81.52839218765004	200.31746446905515	41.57219420049227
268	1.335	-69.89000624430149	552.1976001011279	276.31774471088755	-135.5171362391672	416.13215855649315	16.249404358450988	-81.46744179814826	200.53680822360076	42.009766476622204
269	1.34	-69.76230228769252	552.0883328862844	276.35443397508044	-135.52866385074844	416.2630346299195	16.170503886166063	-81.39995112979818	200.77109459820235	42.47406585681311
270	1.345	-69.63988976895725	551.9819356394773	276.3892232696756	-135.5430094093991	416.3977872836153	16.08866939643159	-81.32561794121267	201.02054000483298	42.96525163537995
271	1.35	-69.52278881402286	551.8784696649458	276.4221103659689	-135.55995808366322	416.53632844341837	16.00402054849177	-81.24416004743858	201.28536556296598	43.483475844936386
272	1.355	-69.41101481030012	551.7780001709865	276.45309676590784	-135.5793013275937	416.67857032594236	15.916686752662905	-81.15531583447952	201.56579608890354	44.028882257556546
273	1.36	-69.3045784074617	551.6805960710485	276.48218770688055	-135.6008370678621	416.8244248915812	15.826807140474266	-81.05884475006745	201.86205906625412	44.60160537153243
274	1.365	-69.20348552618617	551.5863297683914	276.50939215520447	-135.62436986479662	416.973803313841	15.7345304944696	-80.95452776720273	202.17438360189033	45.201769389620466
275	1.37	-69.10773737489342	551.4952769253182	276.53472278830804	-135.64971104734576	417.12661546781777	15.640015137699367	-80.84216781694943	202.5029993716908	45.82948719459656
276	1.375	-69.01733047447603	551.4075162180364	276.5581959656342	-135.67667882203406	417.28276944047525	15.543428783096747	-80.72159018696694	202.84813556032435	46.48485932783214
277	1.38	-68.93225669100899	551.3231290782436	276.5798316883319	-135.70509835604852	417.44217106520864	15.444948343090559	-80.59264288228252	203.21001979928013	47.1679729764657
278	1.385	-68.85250327639831	551.2421994225618	276.59965354784185	-135.73480183466583	417.6047234830007	15.344759699964523	-80.45519694486183	203.58887710727635	47.87890097457737
279	1.39	-68.77805291690713	551.1648133709867	276.6176886635126	-135.76562849330284	417.7703267322978	15.243057437624872	-80.30914672861667	203.98492883709972	48.61770082357953
280	1.395	-68.70888378947562	551.0910589555268	276.6339676094289	-135.79742462454618	417.9388773695451	15.140044535586178	-80.1544101266008	204.39839163283267	49.38441373681751
281	1.4	-68.64496962573	551.021025820242	276.648524330662	-135.83004356058987	418.1102681221324	15.035932026128549	-79.99092874728535	204.82947640132096	50.17906371313188
282	1.405	-68.58627978355341	550.954804913891	276.661396049191	-135.86334563158448	418.28438757530864	14.930938615717226	-79.81866803697505	205.2783873016165	51.001656643872124
283	1.41	-68.53277932607124	550.8924881764156	276.6726231597782	-135.89719810047453	418.46111989442807	14.825290271908065	-79.63761734562426	205.74532075600285	51.852179457570756
284	1.415	-68.48442910788155	550.8341682204881	276.6822491161141	-135.93147507497588	418.64034458369855	14.719219777088938	-79.44778993353539	206.23046448607204	52.73059930619199
285	1.42	-68.44118586834212	550.7799380093502	276.6903203075824	-135.96605739741875	418.82193628240475	14.612966250527498	-79.24922291667357	206.7339965771738	53.636862796560905
286	1.425	-68.40300233170447	550.729890532161	276.6968859270242	-136.00083251325583	419.00576459938503	14.506774640309764	-79.0419771486047	207.25608457439978	54.57089527026089
287	1.43	-68.3698273138676	550.6841184780677	276.70199782991466	-136.03569431910825	419.19169398634904	14.40089518686139	-78.82613703736145	207.7968846130979	55.53260013496168
288	1.435	-68.3416058355043	550.6427139101899	276.705710385392	-136.070542991294	419.37958365042863	14.295582859843869	-78.6018102958591	208.3565405867359	56.521858249809654
289	1.44	-68.31827924129617	550.6057679406971	276.70808031960854	-136.10528479585457	419.5692875061672	14.191096770311445	-78.36912762481865	208.93518335474914	57.53852736717896
290	1.445	-68.29978532499614	550.5733704081277	276.7091665518982	-136.13983188116518	419.7606541669674	14.087699560100582	-78.12824232750727	209.53292999281473	58.582441632748996
291	1.45	-68.28605846002154	550.5456095580763	276.70903002428287	-136.1741020542793	419.9535269758337	13.98565677050265	-77.87932985597142	210.1498830877946	59.65341114554239
292	1.455	-68.27702973526566	550.5225717283407	276.7077335248594	-136.20801854222478	420.1477440750699	13.885236192341633	-77.62258728881568	210.7861300793839	60.75122157923121
293	1.46	-68.27262709580191	550.5043410395898	276.70534150563503	-136.24150973952825	420.343138514419	13.786707199642075	-77.3582327409651	211.44174265028894	61.87563386569874
294	1.465	-68.27277548814129	550.4909990925721	276.70191989539524	-136.27450894330366	420.5395383969646	13.690340069128192	-77.08650470624082	212.11677616653964	63.0263839415318
295	1.47	-68.27739700969296	550.4826246728463	276.69753590820926	-136.30695407729314	420.73676706195204	13.596405287842824	-76.80766133397199	212.81126916932038	64.2031825578169
296	1.475	-68.28641106206554	550.4792934639726	276.6922578481918	-136.3387874062983	420.934643303533	13.505172851214658	-76.521979641261	213.52524291947535	65.40571515332269
297	1.48	-68.29973450783869	550.481077770055	276.6861549111559	-136.369955242484	421.13298162428794	13.416911553933907	-76.22975466290978	214.25870099561465	66.63364179087367
298	1.485	-68.31728183042533	550.4880462484791	276.6792969838016	-136.400407645074	421.3315925222394	13.33188827602035	-75.9312985413993	215.01162894651583	67.88659715645699
299	1.49	-68.33896529663777	550.5002636536407	276.67175444109756	-136.43009811499186	421.53028280993715	13.250367266483217	-75.62693955968912	215.78399399828157	69.16419062035595
300	1.495	-68.36469512156522	550.5177905924053	276.66359794251827	-136.45898328602485	421.728855964066	13.172609426979879	-75.31702111996843	216.57574481648072	70.46600635937209
301	1.5	-68.39437963536575	550.5406832919911	276.65489822780444	-136.48702261410853	421.92711250391346	13.098871597879933	-75.00190067183715	217.38681132326687	71.79160353898253
302	1.505	-68.4279254515721	550.5689933809074	276.6457259129206	-136.51417806634115	422.1248503969198	13.029405849132562	-74.68194859372758	218.2171045692374	73.14051655408217
